<svg xmlns="http://www.w3.org/2000/svg" viewBox="0 0 64 64">
  <rect width="64" height="64" rx="10" fill="#1c1c20"/>
  <g transform="translate(-2 14)" fill="#f5f3ee">
    <!-- M -->
    <path d="M2 33 L2 3 L8 3 L17 18 L26 3 L32 3 L32 33 L27 33 L27 12 L19 25 L15 25 L7 12 L7 33 Z"/>
    <!-- B -->
    <path d="M44 3 L57 3 C61 3 64 6 64 10 C64 13 62 15 60 16.5 C63 18 65 20.5 65 24 C65 28.5 61.5 33 56 33 L44 33 Z M49 8 L49 15 L56 15 C58 15 59.5 13.5 59.5 11.5 C59.5 9.5 58 8 56 8 Z M49 20 L49 28 L55.5 28 C58 28 60 26 60 24 C60 22 58 20 55.5 20 Z"/>
  </g>
  <!-- diagonal laranja entre M e B -->
  <path d="M34 47 L40 17 L43 17 L37 47 Z" fill="#e85a2c"/>
</svg>
